# xmcd
#
# Track frame offsets:
#  150
#  15145
#  29815
#  44692
#  62702
#  80620
#  99162
#  111702
#  133877
#  151080
#
# Disc length: 2229 seconds
#
# Revision: 1
# Processed by: cddbd v1.5.1PL2 Copyright (c) Steve Scherf et al.
# Submitted via: Collectorz.com_Music_Collector 6.11
#
DISCID=8208b30a
DTITLE=Mary Gauthier - Dixie Kitchen
DYEAR=2002
DGENRE=Americana
TTITLE0=Ways Of The World
TTITLE1=I Don't Know Nothing About Love
TTITLE2=The Other Side Of Free
TTITLE3=Goddamn Hiv
TTITLE4=Old Love Never Dies
TTITLE5=You're All I Wanna Do
TTITLE6=Ever Easy
TTITLE7=Skeleton Town
TTITLE8=Rock And Roll Lies
TTITLE9=Mama Louisiana
EXTD=
EXTT0=
EXTT1=
EXTT2=
EXTT3=
EXTT4=
EXTT5=
EXTT6=
EXTT7=
EXTT8=
EXTT9=
PLAYORDER=
